# xmcd CD database file
#
# Track frame offsets:
#	150
#	16984
#	36344
#	48634
#	71446
#	97449
#	117060
#	138547
#	158818
#	176896
#	191295
#	207709
#	229347
#	246508
#	259462
#
# Disc length: 3630 seconds
#
# Revision: 1
# Processed by: cddbd v1.5.2PL0 Copyright (c) Steve Scherf et al.
# Submitted via: CDex 1.50
#
DISCID=eb0e2c0f
DTITLE=Various Artist - Salsa Fever CD2
DYEAR=2003
DGENRE=Salsa
TTITLE0=Willie Colon - Calle Luna Calle Sol
TTITLE1=Isaac Delgado - Cantame como ayer
TTITLE2=La Lupe - Fever
TTITLE3=Los Van Van - Mandalo y Van
TTITLE4=Adalberto Alvarez y Su Son - Gozando En La Habana
TTITLE5=Mayito Riviera - Guaganco Pa' Los Rumberos
TTITLE6=Paulo FG - Pasta Y Tostones
TTITLE7=Grupo Caneo - Duele
TTITLE8=Yambu - Profesor
TTITLE9=Tito Puente y La Lupe - Pata Pata
TTITLE10=Haila - Sobre una Tumba una Rumba
TTITLE11=Celia Cruz y Johny Pacheco - Quimbara
TTITLE12=Ray Baretto - Soul drummer
TTITLE13=Compay Segundo - Jardinero De Amor
TTITLE14=Ibrahim Ferrer feat. Teresa Garcia Caturla - Ausencia
EXTD=YEAR: 2003
EXTT0=
EXTT1=
EXTT2=
EXTT3=
EXTT4=
EXTT5=
EXTT6=
EXTT7=
EXTT8=
EXTT9=
EXTT10=
EXTT11=
EXTT12=
EXTT13=
EXTT14=
PLAYORDER=
